<svg xmlns="http://www.w3.org/2000/svg" viewBox="0 0 1440 320"><path fill="#DEE5EF" fill-opacity="1" d="M0,96L30,112C60,128,120,160,180,160C240,160,300,128,360,133.3C420,139,480,181,540,170.7C600,160,660,96,720,90.7C780,85,840,139,900,165.3C960,192,1020,192,1080,202.7C1140,213,1200,235,1260,229.3C1320,224,1380,192,1410,176L1440,160L1440,0L1410,0C1380,0,1320,0,1260,0C1200,0,1140,0,1080,0C1020,0,960,0,900,0C840,0,780,0,720,0C660,0,600,0,540,0C480,0,420,0,360,0C300,0,240,0,180,0C120,0,60,0,30,0L0,0Z"></path></svg>